<?xml version="1.0" encoding="utf-8"?>
<!-- Generator: Adobe Illustrator 26.2.1, SVG Export Plug-In . SVG Version: 6.00 Build 0)  -->
<svg version="1.1" id="Calque_1" xmlns="http://www.w3.org/2000/svg" xmlns:xlink="http://www.w3.org/1999/xlink" x="0px" y="0px"
	 viewBox="0 0 200 200" style="enable-background:new 0 0 200 200;" xml:space="preserve">
<style type="text/css">
	.st0{fill:url(#SVGID_1_);}
</style>
<linearGradient id="SVGID_1_" gradientUnits="userSpaceOnUse" x1="-195.9055" y1="518.6067" x2="-194.9055" y2="518.6067" gradientTransform="matrix(180 0 0 -180 35273 93449.2031)">
	<stop  offset="0.2" style="stop-color:#5C8EFE"/>
	<stop  offset="0.8" style="stop-color:#AC2EFF"/>
</linearGradient>
<path class="st0" d="M100,10c-49.7,0-90,40.3-90,90s40.3,90,90,90s90-40.3,90-90S149.7,10,100,10z M87.9,70.3
	c-3.3-1.8-6.6-3.2-10.1-4.1c-3.5-0.9-7.3-1.4-11.4-1.4c-4.2,0-8,0.8-11.5,2.4c-3.4,1.6-6.3,3.9-8.7,6.9c-2.4,3-4.2,6.7-5.5,11
	c-1.3,4.3-1.9,9.3-1.9,14.8c0,11.7,2.4,20.5,7.1,26.4c4.7,5.9,11.7,8.9,20.8,8.9c3.9,0,7.6-0.4,11.1-1.3c3.5-0.9,6.9-2.1,10.2-3.8
	v11.6c-7.2,3-14.8,4.5-22.7,4.5c-12.7,0-22.5-3.8-29.3-11.4c-6.8-7.6-10.2-18.8-10.2-33.7c0-7.2,0.9-13.7,2.8-19.6
	c1.9-5.8,4.6-10.8,8.1-14.8c3.5-4.1,7.7-7.2,12.7-9.4c5-2.2,10.5-3.3,16.7-3.3c4.2,0,8.1,0.4,11.6,1.1c3.6,0.7,7,1.8,10.3,3.3V70.3z
	 M143.7,145h-16.5L97.2,55h13.8l19.4,60.7l5.5,17.8l5.6-17.8L161.2,55h13.1L143.7,145z"/>
</svg>
