<?xml version="1.0" encoding="utf-8"?>
<!-- Generator: Adobe Illustrator 26.2.1, SVG Export Plug-In . SVG Version: 6.00 Build 0)  -->
<svg version="1.1" id="Calque_1" xmlns="http://www.w3.org/2000/svg" xmlns:xlink="http://www.w3.org/1999/xlink" x="0px" y="0px"
	 viewBox="0 0 200 200" style="enable-background:new 0 0 200 200;" xml:space="preserve">
<style type="text/css">
	.st0{fill:url(#SVGID_1_);}
</style>
<linearGradient id="SVGID_1_" gradientUnits="userSpaceOnUse" x1="-195.9055" y1="518.6067" x2="-194.9055" y2="518.6067" gradientTransform="matrix(180 0 0 -180 35273 93449.2031)">
	<stop  offset="0.2" style="stop-color:#5C8EFE"/>
	<stop  offset="0.8" style="stop-color:#AC2EFF"/>
</linearGradient>
<path class="st0" d="M100,10c-49.7,0-90,40.3-90,90s40.3,90,90,90s90-40.3,90-90S149.7,10,100,10z M90.8,78.5
	c-3.2-1.5-6.3-2.6-9.2-3.2c-2.9-0.6-5.5-1-7.9-1c-3.5,0-6.5,0.6-9,1.9c-2.5,1.3-4.5,3-6.1,5.3c-1.6,2.3-2.8,5-3.5,8.2
	c-0.8,3.2-1.1,6.6-1.1,10.4c0,4,0.4,7.6,1.2,10.7c0.8,3.2,2,5.8,3.6,8c1.6,2.2,3.7,3.9,6.2,5c2.5,1.2,5.5,1.7,9,1.7
	c1.2,0,2.6-0.1,4-0.4c1.5-0.2,2.9-0.6,4.4-1c1.5-0.4,3-0.9,4.4-1.4c1.5-0.5,2.8-1.1,4-1.7v13c-3.3,1.3-6.5,2.3-9.5,2.9
	c-3.1,0.6-6.3,1-9.6,1c-5.3,0-10-0.8-14.1-2.4c-4.1-1.6-7.6-3.9-10.4-7c-2.8-3.1-4.9-6.9-6.4-11.5c-1.5-4.6-2.2-9.9-2.2-16
	c0-6.2,0.8-11.8,2.4-16.6c1.6-4.9,3.9-8.9,6.8-12.3c2.9-3.3,6.5-5.9,10.7-7.6c4.2-1.8,8.9-2.6,14.2-2.6c1.7,0,3.3,0,4.8,0.1
	c1.5,0.1,3,0.2,4.4,0.4c1.4,0.2,2.9,0.5,4.4,0.8s3,0.8,4.6,1.3V78.5z M138.7,137h-18.5L97.7,63h15.8l12.5,44.6l4,14.6l4.2-15.5
	L146.6,63h14.8L138.7,137z"/>
</svg>
